<mxfile host="app.diagrams.net" agent="Mozilla/5.0 (Macintosh; Intel Mac OS X 10_15_7) AppleWebKit/537.36 (KHTML, like Gecko) Chrome/140.0.0.0 Safari/537.36" version="28.2.5">
  <diagram name="Page-1" id="oCtLj0_jnEoNgbc56EWg">
    <mxGraphModel dx="1072" dy="729" grid="1" gridSize="10" guides="1" tooltips="1" connect="1" arrows="1" fold="1" page="1" pageScale="1" pageWidth="850" pageHeight="1100" math="0" shadow="0">
      <root>
        <mxCell id="0" />
        <mxCell id="1" parent="0" />
        <mxCell id="Qu2WDLxZ_UC3u_t74WdJ-2" value="&lt;b&gt;Web Application&lt;/b&gt;" style="shape=umlFrame;whiteSpace=wrap;html=1;pointerEvents=0;width=120;height=30;dashed=1;fillColor=#f5f5f5;strokeColor=#666666;fontColor=#333333;" vertex="1" parent="1">
          <mxGeometry x="40" y="40" width="770" height="350" as="geometry" />
        </mxCell>
        <mxCell id="Qu2WDLxZ_UC3u_t74WdJ-3" value="&lt;b&gt;Front-end&lt;/b&gt;" style="shape=umlFrame;whiteSpace=wrap;html=1;pointerEvents=0;width=80;height=30;dashed=1;fillColor=#dae8fc;strokeColor=#6c8ebf;" vertex="1" parent="1">
          <mxGeometry x="60" y="90" width="300" height="220" as="geometry" />
        </mxCell>
        <mxCell id="Qu2WDLxZ_UC3u_t74WdJ-4" value="Toolbar" style="html=1;whiteSpace=wrap;fillColor=#dae8fc;strokeColor=#6c8ebf;" vertex="1" parent="1">
          <mxGeometry x="240" y="130" width="110" height="50" as="geometry" />
        </mxCell>
        <mxCell id="Qu2WDLxZ_UC3u_t74WdJ-5" value="Sidebar" style="html=1;whiteSpace=wrap;fillColor=#dae8fc;strokeColor=#6c8ebf;" vertex="1" parent="1">
          <mxGeometry x="240" y="190" width="110" height="50" as="geometry" />
        </mxCell>
        <mxCell id="Qu2WDLxZ_UC3u_t74WdJ-7" value="&lt;b&gt;Engine&lt;/b&gt;" style="shape=umlFrame;whiteSpace=wrap;html=1;pointerEvents=0;width=70;height=30;dashed=1;fillColor=#f8cecc;strokeColor=#b85450;" vertex="1" parent="1">
          <mxGeometry x="480" y="90" width="310" height="280" as="geometry" />
        </mxCell>
        <mxCell id="Qu2WDLxZ_UC3u_t74WdJ-8" value="Lexer" style="html=1;whiteSpace=wrap;fillColor=#fff2cc;strokeColor=#d6b656;" vertex="1" parent="1">
          <mxGeometry x="670" y="100" width="110" height="50" as="geometry" />
        </mxCell>
        <mxCell id="Qu2WDLxZ_UC3u_t74WdJ-9" value="Parser" style="html=1;whiteSpace=wrap;fillColor=#fff2cc;strokeColor=#d6b656;" vertex="1" parent="1">
          <mxGeometry x="670" y="190" width="110" height="50" as="geometry" />
        </mxCell>
        <mxCell id="Qu2WDLxZ_UC3u_t74WdJ-10" value="Runtime" style="html=1;whiteSpace=wrap;fillColor=#fff2cc;strokeColor=#d6b656;" vertex="1" parent="1">
          <mxGeometry x="670" y="280" width="110" height="50" as="geometry" />
        </mxCell>
        <mxCell id="Qu2WDLxZ_UC3u_t74WdJ-11" value="Evaluator" style="html=1;whiteSpace=wrap;fillColor=#f8cecc;strokeColor=#b85450;" vertex="1" parent="1">
          <mxGeometry x="490" y="130" width="110" height="230" as="geometry" />
        </mxCell>
        <mxCell id="Qu2WDLxZ_UC3u_t74WdJ-12" value="Spreadsheet" style="html=1;whiteSpace=wrap;fillColor=#dae8fc;strokeColor=#6c8ebf;" vertex="1" parent="1">
          <mxGeometry x="240" y="250" width="110" height="50" as="geometry" />
        </mxCell>
        <mxCell id="Qu2WDLxZ_UC3u_t74WdJ-13" value="" style="endArrow=none;startArrow=classic;html=1;rounded=0;exitX=0.5;exitY=0;exitDx=0;exitDy=0;startFill=1;endFill=0;" edge="1" parent="1" source="Qu2WDLxZ_UC3u_t74WdJ-9">
          <mxGeometry width="50" height="50" relative="1" as="geometry">
            <mxPoint x="930" y="130" as="sourcePoint" />
            <mxPoint x="725" y="150" as="targetPoint" />
          </mxGeometry>
        </mxCell>
        <mxCell id="Qu2WDLxZ_UC3u_t74WdJ-14" value="Produce tokens" style="text;html=1;align=right;verticalAlign=middle;resizable=0;points=[];autosize=1;strokeColor=none;fillColor=none;fontSize=8;spacing=0;" vertex="1" parent="1">
          <mxGeometry x="630" y="160" width="80" height="20" as="geometry" />
        </mxCell>
        <mxCell id="Qu2WDLxZ_UC3u_t74WdJ-15" value="" style="endArrow=none;startArrow=classic;html=1;rounded=0;entryX=0.5;entryY=1;entryDx=0;entryDy=0;exitX=0.5;exitY=0;exitDx=0;exitDy=0;endFill=0;" edge="1" parent="1" source="Qu2WDLxZ_UC3u_t74WdJ-10" target="Qu2WDLxZ_UC3u_t74WdJ-9">
          <mxGeometry width="50" height="50" relative="1" as="geometry">
            <mxPoint x="930" y="130" as="sourcePoint" />
            <mxPoint x="980" y="80" as="targetPoint" />
          </mxGeometry>
        </mxCell>
        <mxCell id="Qu2WDLxZ_UC3u_t74WdJ-16" value="Parse AST" style="text;html=1;align=right;verticalAlign=middle;resizable=0;points=[];autosize=1;strokeColor=none;fillColor=none;fontSize=8;spacing=0;" vertex="1" parent="1">
          <mxGeometry x="650" y="250" width="60" height="20" as="geometry" />
        </mxCell>
        <mxCell id="Qu2WDLxZ_UC3u_t74WdJ-20" value="Evaluate formula" style="text;html=1;align=center;verticalAlign=middle;resizable=0;points=[];autosize=1;strokeColor=none;fillColor=none;fontSize=8;spacing=0;" vertex="1" parent="1">
          <mxGeometry x="630" y="340" width="80" height="20" as="geometry" />
        </mxCell>
        <mxCell id="Qu2WDLxZ_UC3u_t74WdJ-25" value="Render" style="text;html=1;align=right;verticalAlign=middle;resizable=0;points=[];autosize=1;strokeColor=none;fillColor=none;fontSize=8;spacing=0;" vertex="1" parent="1">
          <mxGeometry x="70" y="205" width="50" height="20" as="geometry" />
        </mxCell>
        <mxCell id="Qu2WDLxZ_UC3u_t74WdJ-30" value="Evaluate cells" style="text;html=1;align=center;verticalAlign=middle;resizable=0;points=[];autosize=1;strokeColor=none;fillColor=none;fontSize=8;spacing=0;" vertex="1" parent="1">
          <mxGeometry x="385" y="256" width="70" height="20" as="geometry" />
        </mxCell>
        <mxCell id="Qu2WDLxZ_UC3u_t74WdJ-32" value="&lt;b&gt;Database&lt;/b&gt;" style="shape=umlFrame;whiteSpace=wrap;html=1;pointerEvents=0;width=80;height=30;dashed=1;fillColor=#d5e8d4;strokeColor=#82b366;" vertex="1" parent="1">
          <mxGeometry x="40" y="410" width="540" height="120" as="geometry" />
        </mxCell>
        <mxCell id="Qu2WDLxZ_UC3u_t74WdJ-33" value="Authentication" style="html=1;whiteSpace=wrap;fillColor=#d5e8d4;strokeColor=#82b366;" vertex="1" parent="1">
          <mxGeometry x="50" y="460" width="160" height="60" as="geometry" />
        </mxCell>
        <mxCell id="Qu2WDLxZ_UC3u_t74WdJ-37" value="" style="endArrow=classic;html=1;rounded=0;exitX=0.5;exitY=1;exitDx=0;exitDy=0;entryX=1;entryY=1;entryDx=0;entryDy=0;" edge="1" parent="1" source="Qu2WDLxZ_UC3u_t74WdJ-10" target="Qu2WDLxZ_UC3u_t74WdJ-11">
          <mxGeometry width="50" height="50" relative="1" as="geometry">
            <mxPoint x="590" y="370" as="sourcePoint" />
            <mxPoint x="640" y="320" as="targetPoint" />
            <Array as="points">
              <mxPoint x="725" y="360" />
            </Array>
          </mxGeometry>
        </mxCell>
        <mxCell id="Qu2WDLxZ_UC3u_t74WdJ-38" value="" style="endArrow=classic;html=1;rounded=0;entryX=1;entryY=0.5;entryDx=0;entryDy=0;exitX=-0.005;exitY=0.632;exitDx=0;exitDy=0;exitPerimeter=0;" edge="1" parent="1" source="Qu2WDLxZ_UC3u_t74WdJ-11" target="Qu2WDLxZ_UC3u_t74WdJ-12">
          <mxGeometry width="50" height="50" relative="1" as="geometry">
            <mxPoint x="380" y="310" as="sourcePoint" />
            <mxPoint x="430" y="260" as="targetPoint" />
          </mxGeometry>
        </mxCell>
        <mxCell id="Qu2WDLxZ_UC3u_t74WdJ-40" value="Projects" style="html=1;whiteSpace=wrap;fillColor=#d5e8d4;strokeColor=#82b366;" vertex="1" parent="1">
          <mxGeometry x="230" y="460" width="160" height="60" as="geometry" />
        </mxCell>
        <mxCell id="Qu2WDLxZ_UC3u_t74WdJ-41" value="Logs" style="html=1;whiteSpace=wrap;fillColor=#d5e8d4;strokeColor=#82b366;" vertex="1" parent="1">
          <mxGeometry x="410" y="460" width="160" height="60" as="geometry" />
        </mxCell>
        <mxCell id="Qu2WDLxZ_UC3u_t74WdJ-45" value="" style="endArrow=classic;html=1;rounded=0;exitX=0.35;exitY=-0.007;exitDx=0;exitDy=0;exitPerimeter=0;entryX=0.566;entryY=1.001;entryDx=0;entryDy=0;entryPerimeter=0;" edge="1" parent="1" source="Qu2WDLxZ_UC3u_t74WdJ-32" target="Qu2WDLxZ_UC3u_t74WdJ-3">
          <mxGeometry width="50" height="50" relative="1" as="geometry">
            <mxPoint x="290" y="370" as="sourcePoint" />
            <mxPoint x="231" y="313" as="targetPoint" />
          </mxGeometry>
        </mxCell>
        <mxCell id="Qu2WDLxZ_UC3u_t74WdJ-46" value="Main Page" style="html=1;whiteSpace=wrap;fillColor=#dae8fc;strokeColor=#6c8ebf;" vertex="1" parent="1">
          <mxGeometry x="70" y="140" width="110" height="50" as="geometry" />
        </mxCell>
        <mxCell id="Qu2WDLxZ_UC3u_t74WdJ-47" value="Router" style="html=1;whiteSpace=wrap;fillColor=#f5f5f5;strokeColor=#666666;fontColor=#333333;" vertex="1" parent="1">
          <mxGeometry x="70" y="250" width="110" height="50" as="geometry" />
        </mxCell>
        <mxCell id="Qu2WDLxZ_UC3u_t74WdJ-48" value="" style="endArrow=classic;html=1;rounded=0;exitX=0.5;exitY=1;exitDx=0;exitDy=0;entryX=0.5;entryY=0;entryDx=0;entryDy=0;" edge="1" parent="1" source="Qu2WDLxZ_UC3u_t74WdJ-46" target="Qu2WDLxZ_UC3u_t74WdJ-47">
          <mxGeometry width="50" height="50" relative="1" as="geometry">
            <mxPoint x="250" y="350" as="sourcePoint" />
            <mxPoint x="300" y="300" as="targetPoint" />
          </mxGeometry>
        </mxCell>
        <mxCell id="Qu2WDLxZ_UC3u_t74WdJ-49" value="" style="endArrow=classic;html=1;rounded=0;exitX=1;exitY=0.25;exitDx=0;exitDy=0;entryX=-0.007;entryY=0.455;entryDx=0;entryDy=0;entryPerimeter=0;" edge="1" parent="1" source="Qu2WDLxZ_UC3u_t74WdJ-46" target="Qu2WDLxZ_UC3u_t74WdJ-4">
          <mxGeometry width="50" height="50" relative="1" as="geometry">
            <mxPoint x="250" y="350" as="sourcePoint" />
            <mxPoint x="300" y="300" as="targetPoint" />
          </mxGeometry>
        </mxCell>
        <mxCell id="Qu2WDLxZ_UC3u_t74WdJ-50" value="" style="endArrow=classic;html=1;rounded=0;exitX=1;exitY=0.5;exitDx=0;exitDy=0;entryX=0;entryY=0.5;entryDx=0;entryDy=0;" edge="1" parent="1" source="Qu2WDLxZ_UC3u_t74WdJ-46" target="Qu2WDLxZ_UC3u_t74WdJ-5">
          <mxGeometry width="50" height="50" relative="1" as="geometry">
            <mxPoint x="200" y="170" as="sourcePoint" />
            <mxPoint x="260" y="170" as="targetPoint" />
            <Array as="points">
              <mxPoint x="210" y="165" />
              <mxPoint x="210" y="215" />
            </Array>
          </mxGeometry>
        </mxCell>
        <mxCell id="Qu2WDLxZ_UC3u_t74WdJ-52" value="" style="endArrow=classic;html=1;rounded=0;exitX=1;exitY=0.75;exitDx=0;exitDy=0;entryX=0;entryY=0.5;entryDx=0;entryDy=0;" edge="1" parent="1" source="Qu2WDLxZ_UC3u_t74WdJ-46" target="Qu2WDLxZ_UC3u_t74WdJ-12">
          <mxGeometry width="50" height="50" relative="1" as="geometry">
            <mxPoint x="200" y="230" as="sourcePoint" />
            <mxPoint x="250" y="180" as="targetPoint" />
            <Array as="points">
              <mxPoint x="200" y="178" />
              <mxPoint x="200" y="275" />
            </Array>
          </mxGeometry>
        </mxCell>
      </root>
    </mxGraphModel>
  </diagram>
</mxfile>
